<svg width="47" height="34" viewBox="0 0 47 34" fill="none" xmlns="http://www.w3.org/2000/svg">
<rect x="1.5" y="22.5" width="23" height="11" stroke="black"/>
<line x1="24.3924" y1="22.4005" x2="45.9592" y2="0.833726" stroke="black"/>
<line x1="22.7" y1="0.799988" x2="46.2" y2="0.799987" stroke="black"/>
<line x1="24.6464" y1="33.6464" x2="46.0011" y2="12.2918" stroke="black"/>
<line x1="1.34646" y1="22.4253" x2="23.1253" y2="0.646427" stroke="black"/>
<path fill-rule="evenodd" clip-rule="evenodd" d="M39.5061 3.19238L38.799 3.89949L38.0919 3.19238L38.799 2.48528L39.5061 3.19238ZM37.3848 5.3137L36.6777 6.02081L35.9706 5.3137L36.6777 4.6066L37.3848 5.3137ZM34.5564 3.89949L35.2635 3.19238L34.5564 2.48528L33.8492 3.19238L34.5564 3.89949ZM35.2635 7.43502L34.5564 8.14213L33.8492 7.43502L34.5564 6.72792L35.2635 7.43502ZM32.435 6.02081L33.1421 5.3137L32.435 4.6066L31.7279 5.3137L32.435 6.02081ZM33.1421 9.55634L32.435 10.2635L31.7279 9.55634L32.435 8.84924L33.1421 9.55634ZM30.3137 8.14213L31.0208 7.43502L30.3137 6.72792L29.6066 7.43502L30.3137 8.14213ZM31.0208 11.6777L30.3137 12.3848L29.6066 11.6777L30.3137 10.9706L31.0208 11.6777ZM28.1924 14.5061L28.8995 13.799L28.1924 13.0919L27.4853 13.799L28.1924 14.5061Z" fill="black"/>
<line x1="45.75" y1="12.5" x2="45.75" y2="0.5" stroke="black"/>
</svg>
