<svg width="46" height="47" viewBox="0 0 46 47" fill="none" xmlns="http://www.w3.org/2000/svg">
<path d="M2.5 46.3475H43.5C44.6046 46.3475 45.5 45.4521 45.5 44.3475V8.23414C45.5 7.77527 45.3422 7.33034 45.0531 6.97401L40.8062 1.73986C40.4264 1.27182 39.8559 1 39.2531 1H2.5C1.39543 1 0.5 1.89543 0.5 3V44.3475C0.5 45.4521 1.39543 46.3475 2.5 46.3475Z" fill="white" stroke="black"/>
<path d="M6.5882 47V29.7518C6.5882 28.6472 7.48363 27.7518 8.5882 27.7518H37.9411C39.0457 27.7518 39.9411 28.6472 39.9411 29.7518V47" stroke="black"/>
<path d="M34.1176 1.00002L34.1176 14.0071C34.1176 15.1117 33.2222 16.0071 32.1176 16.0071L12.8235 16.0071C11.7189 16.0071 10.8235 15.1117 10.8235 14.0071L10.8235 1.00002" stroke="black"/>
<rect x="23.5" y="4.10992" width="5.88235" height="8.78723" rx="1.5" fill="white" stroke="black"/>
</svg>
