<svg width="66" height="67" viewBox="0 0 66 67" fill="none" xmlns="http://www.w3.org/2000/svg">
<path d="M29.5 60L32.6716 56.8284C34.2337 55.2663 36.7663 55.2663 38.3284 56.8284L41.1716 59.6716C42.7337 61.2337 42.7337 63.7663 41.1716 65.3284L40.5 66" stroke="black" stroke-width="2"/>
<path d="M34 62L38.5 57.5" stroke="black" stroke-width="2"/>
<path d="M26 27V5C26 2.79086 27.7909 1 30 1H51" stroke="black" stroke-width="2"/>
<path d="M36 6H45C47.2091 6 49 7.79086 49 10V18C49 20.2091 47.2091 22 45 22H33.5" stroke="black" stroke-width="2"/>
<path d="M16 23.5V22C16 19.7909 14.2091 18 12 18H11V20.5H7V18H5C2.79086 18 1 19.7909 1 22V26.1737C1 28.5631 2.93694 30.5 5.32627 30.5V30.5C6.33715 30.5 7.24618 29.8846 7.62161 28.946L7.66311 28.8422C8.11931 27.7017 9.74988 27.7497 10.1383 28.915L10.2144 29.1431C10.5601 30.1803 11.9053 30.4438 12.6169 29.6137L14 28" stroke="black" stroke-width="2"/>
<path d="M28.5 32.5H19.0814C18.3732 32.5 17.6777 32.688 17.0659 33.0449L13.4181 35.1728C12.54 35.685 12 36.6251 12 37.6417V37.6417C12 39.2203 13.2797 40.5 14.8583 40.5H20.3431C21.404 40.5 22.4214 40.9214 23.1716 41.6716L23.7929 42.2929C24.2456 42.7456 24.5 43.3597 24.5 44V44C24.5 44.6403 24.2456 45.2544 23.7929 45.7071L23.7678 45.7322C22.7915 46.7085 22.7915 48.2915 23.7678 49.2678L28.5 54" stroke="black" stroke-width="2"/>
<path d="M40 28.5H49.5" stroke="black" stroke-width="2"/>
<path d="M55.5 4.5V32.5" stroke="black" stroke-width="2"/>
<path d="M32 36.5H57.5L63.8609 42.8609C64.5903 43.5903 65 44.5795 65 45.6109V45.6109C65 47.7588 63.2588 49.5 61.1109 49.5H48" stroke="black" stroke-width="2"/>
<path fill-rule="evenodd" clip-rule="evenodd" d="M56 39H39V41H44V43H46V41H48V43H50V41H52V43H54V41H56V43H58V41H56V39ZM52 44H50V46H52V44ZM56 44H54V46H56V44ZM60 44H58V46H60V44Z" fill="black"/>
</svg>
