<svg width="35" height="31" viewBox="0 0 35 31" fill="none" xmlns="http://www.w3.org/2000/svg">
<path d="M13.0316 6.46969L23.2145 6.83485L29.4744 13.1658L27.4879 15.13L26.4446 14.0749L18.9951 21.4408L16.9586 21.3677L15.9653 22.3499L9.85556 22.1308L8.81223 21.0756L8.76217 19.0383L7.71884 17.9832L7.56865 11.8713L13.0316 6.46969Z" fill="white"/>
<path d="M8.76217 19.0383L7.71884 17.9832L7.56865 11.8713L13.0316 6.46969L23.2145 6.83485L29.4744 13.1658L27.4879 15.13L26.4446 14.0749L18.9951 21.4408L16.9586 21.3677L15.9653 22.3499L9.85556 22.1308L8.81223 21.0756M8.76217 19.0383L10.7487 17.0741M8.76217 19.0383L8.81223 21.0756M10.7487 17.0741L10.6986 15.0368L11.6919 14.0547L13.7285 14.1277L14.7718 15.1829M10.7487 17.0741L11.792 18.1292L13.8286 18.2023L14.8218 17.2202L14.7718 15.1829M14.7718 15.1829L19.2414 10.7633M8.81223 21.0756L5.83246 24.022" stroke="black"/>
<rect x="22.6927" y="6.30723" width="4.19048" height="11.871" transform="rotate(-44.677 22.6927 6.30723)" fill="black"/>
</svg>
