<svg width="50" height="46" viewBox="0 0 50 46" fill="none" xmlns="http://www.w3.org/2000/svg">
<rect x="9.42969" y="0.5" width="26" height="25" stroke="black"/>
<rect x="1.99219" y="25.5" width="47" height="14" stroke="black"/>
<rect x="1.05469" y="25.5" width="42" height="20" fill="white" stroke="black"/>
<rect x="6.17969" y="25.5" width="32" height="6" stroke="black"/>
<rect x="1.00781" y="25.5" width="42" height="3" stroke="black"/>
<rect x="1.02344" y="25.5" width="42" height="11" stroke="black"/>
<path fill-rule="evenodd" clip-rule="evenodd" d="M19.4297 6H17.4297V7H19.4297V6ZM21.4297 10V9H17.4297V10H21.4297ZM17.4297 12H22.4297V13H17.4297V12ZM25.4297 16V15H17.4297V16H25.4297ZM17.4297 18H22.4297V19H17.4297V18ZM28.4297 12H23.4297V13H28.4297V12ZM20.4297 6H24.4297V7H20.4297V6ZM25.4297 9H22.4297V10H25.4297V9ZM25.4297 6H28.4297V7H25.4297V6ZM28.4297 9H26.4297V10H28.4297V9ZM26.4297 15H28.4297V16H26.4297V15ZM28.4297 18H23.4297V19H28.4297V18Z" fill="black"/>
<path fill-rule="evenodd" clip-rule="evenodd" d="M12.4297 3H13.4297V4H12.4297V3ZM12.4297 6H13.4297V7H12.4297V6ZM13.4297 9H12.4297V10H13.4297V9ZM12.4297 12H13.4297V13H12.4297V12ZM13.4297 15H12.4297V16H13.4297V15ZM12.4297 18H13.4297V19H12.4297V18ZM13.4297 21H12.4297V22H13.4297V21Z" fill="black"/>
<path fill-rule="evenodd" clip-rule="evenodd" d="M32.4297 3H33.4297V4H32.4297V3ZM32.4297 6H33.4297V7H32.4297V6ZM33.4297 9H32.4297V10H33.4297V9ZM32.4297 12H33.4297V13H32.4297V12ZM33.4297 15H32.4297V16H33.4297V15ZM32.4297 18H33.4297V19H32.4297V18ZM33.4297 21H32.4297V22H33.4297V21Z" fill="black"/>
<rect x="5.42969" y="41" width="1" height="1" fill="black"/>
</svg>
