<svg width="14" height="11" viewBox="0 0 14 11" fill="none" xmlns="http://www.w3.org/2000/svg">
<path fill-rule="evenodd" clip-rule="evenodd" d="M2 0.886368H3.31818V2.20455H2V0.886368ZM2 3.52274H3.31818V4.84092H2V3.52274ZM5.95453 2.20454H4.63635V3.52273H5.95453V2.20454ZM7.27271 3.52274H8.59089V4.84092H7.27271V3.52274ZM11.2273 2.20454H9.90912V3.52273H11.2273V2.20454ZM2 6.15909H3.31818V7.47727H2V6.15909ZM5.95453 4.84091H4.63635V6.15909H5.95453V4.84091ZM7.27271 6.15909H8.59089V7.47727H7.27271V6.15909ZM11.2273 4.84091H9.90912V6.15909H11.2273V4.84091ZM2 8.79546H3.31818V10.1136H2V8.79546ZM5.95453 7.47728H4.63635V8.79546H5.95453V7.47728ZM7.27271 8.79546H8.59089V10.1136H7.27271V8.79546ZM11.2273 7.47728H9.90912V8.79546H11.2273V7.47728Z" fill="black"/>
</svg>
