<svg width="69" height="68" viewBox="0 0 69 68" fill="none" xmlns="http://www.w3.org/2000/svg">
<path fill-rule="evenodd" clip-rule="evenodd" d="M7 0H0V7H7V0ZM7 18H0V25H7V18ZM0 35H7V42H0V35ZM7 52H0V59H7V52ZM9 9H16V16H9V9ZM16 27H9V34H16V27ZM9 44H16V51H9V44ZM16 61H9V68H16V61ZM18 0H25V7H18V0ZM25 18H18V25H25V18ZM18 35H25V42H18V35ZM25 52H18V59H25V52ZM27 9H34V16H27V9ZM34 27H27V34H34V27ZM27 44H34V51H27V44ZM34 61H27V68H34V61ZM35 0H42V7H35V0ZM42 18H35V25H42V18ZM35 35H42V42H35V35ZM42 52H35V59H42V52ZM44 9H51V16H44V9ZM51 27H44V34H51V27ZM44 44H51V51H44V44ZM51 61H44V68H51V61ZM53 0H60V7H53V0ZM60 18H53V25H60V18ZM53 35H60V42H53V35ZM60 52H53V59H60V52ZM62 9H69V16H62V9ZM69 27H62V34H69V27ZM62 44H69V51H62V44ZM69 61H62V68H69V61Z" fill="black"/>
</svg>
