<svg width="32" height="46" viewBox="0 0 32 46" fill="none" xmlns="http://www.w3.org/2000/svg">
<rect x="12.5" y="0.5" width="8" height="1.93617" fill="white" stroke="black"/>
<rect x="0.5" y="2.45744" width="31" height="2.91489" fill="white" stroke="black"/>
<path d="M1.5 5.39362H30.5V44C30.5 44.8284 29.8284 45.5 29 45.5H3C2.17157 45.5 1.5 44.8284 1.5 44V5.39362Z" fill="white" stroke="black"/>
<path d="M6 9.78723L6.89893 10.667C7.28334 11.0433 7.5 11.5585 7.5 12.0964V39.0445C7.5 39.7203 7.1588 40.3503 6.5929 40.7195L6 41.1064" stroke="black"/>
<path d="M12 9.78723L12.8989 10.667C13.2833 11.0433 13.5 11.5585 13.5 12.0964V39.0445C13.5 39.7203 13.1588 40.3503 12.5929 40.7195L12 41.1064" stroke="black"/>
<path d="M18 9.78723L18.8989 10.667C19.2833 11.0433 19.5 11.5585 19.5 12.0964V39.0445C19.5 39.7203 19.1588 40.3503 18.5929 40.7195L18 41.1064" stroke="black"/>
<path d="M24 9.78723L24.8989 10.667C25.2833 11.0433 25.5 11.5585 25.5 12.0964V39.0445C25.5 39.7203 25.1588 40.3503 24.5929 40.7195L24 41.1064" stroke="black"/>
</svg>
