<svg width="46" height="48" viewBox="0 0 46 48" fill="none" xmlns="http://www.w3.org/2000/svg">
<path d="M22.4524 1L1.5 23.2581L23.8492 47L44.8016 24.7419L22.4524 1Z" fill="white" stroke="black" stroke-width="1.3"/>
<path d="M34.3254 21.7742L41.3095 29.1935V38.0968H38.5158V36.6129H28.0397L26.6428 35.129H25.246L21.0555 30.6774V29.1935L22.4524 27.7097V26.2258L26.6428 21.7742H34.3254Z" fill="white"/>
<path d="M22.4524 27.7097V26.2258L26.6428 21.7742H34.3254L41.3095 29.1935V38.0968H38.5158V36.6129H28.0397L26.6428 35.129H25.246L21.0555 30.6774V29.1935M22.4524 27.7097H25.246M22.4524 27.7097L21.0555 29.1935M25.246 27.7097L26.6428 26.2258H28.0397L29.4365 27.7097V29.1935M25.246 27.7097V29.1935L26.6428 30.6774H28.0397L29.4365 29.1935M29.4365 29.1935H35.7222M21.0555 29.1935H16.8651" stroke="black"/>
<rect x="41.3095" y="28.4517" width="4.19048" height="11.871" fill="black"/>
<rect x="25.246" y="28.4517" width="4.19048" height="1.48387" fill="black"/>
</svg>
